<svg width="153" height="44" viewBox="0 0 153 44" fill="none" xmlns="http://www.w3.org/2000/svg">
<path d="M31.2188 4V39.3H23.6135V36.9C21.9124 38.8 19.5107 40 16.1084 40C9.5038 40 4 34.2 4 26.7C4 19.2 9.5038 13.4 16.1084 13.4C19.5107 13.4 22.0124 14.6 23.6135 16.5V4H31.2188ZM23.6135 26.7C23.6135 22.9 21.1118 20.5 17.6094 20.5C14.107 20.5 11.6052 22.9 11.6052 26.7C11.6052 30.5 14.107 32.9 17.6094 32.9C21.1118 32.8 23.6135 30.5 23.6135 26.7Z" fill="#FFC700"/>
<path d="M47.7298 33.1999C49.8313 33.1999 51.5325 32.3999 52.5332 31.2999L58.6374 34.7999C56.1356 38.1999 52.4331 39.9999 47.6298 39.9999C39.0238 39.9999 33.6201 34.1999 33.6201 26.6999C33.6201 19.1999 39.0238 13.3999 47.0294 13.3999C54.4345 13.3999 59.8382 19.0999 59.8382 26.6999C59.8382 27.7999 59.7381 28.7999 59.538 29.6999H41.6256C42.6263 32.2999 44.9279 33.1999 47.7298 33.1999ZM52.333 24.0999C51.5325 21.1999 49.2309 20.0999 46.9293 20.0999C44.0273 20.0999 42.126 21.4999 41.4255 24.0999H52.333Z" fill="#FFC700"/>
<path d="M86.1563 14.1001L76.8499 39.3001H68.2439L58.9375 14.1001H67.3433L72.647 30.1001L77.9506 14.1001C77.9506 14.1001 86.1563 14.1001 86.1563 14.1001Z" fill="#FFC700"/>
<path d="M87.458 14.1001H95.0633V39.3001H87.458V14.1001Z" fill="#FFC700"/>
<path d="M97.665 26.6999C97.665 19.1999 103.369 13.3999 111.074 13.3999C115.978 13.3999 120.281 15.9999 122.482 19.8999L115.878 23.6999C114.977 21.8999 113.176 20.8999 110.974 20.8999C107.672 20.8999 105.27 23.2999 105.27 26.6999C105.27 30.1999 107.672 32.4999 110.974 32.4999C113.176 32.4999 115.077 31.3999 115.878 29.6999L122.482 33.4999C120.381 37.3999 116.078 39.9999 111.074 39.9999C103.369 39.9999 97.665 34.1999 97.665 26.6999Z" fill="#FFC700"/>
<path d="M136.892 33.1999C138.993 33.1999 140.695 32.3999 141.695 31.2999L147.799 34.7999C145.298 38.1999 141.595 39.9999 136.792 39.9999C128.186 39.9999 122.782 34.1999 122.782 26.6999C122.782 19.1999 128.286 13.3999 136.191 13.3999C143.597 13.3999 149 19.0999 149 26.6999C149 27.7999 148.9 28.7999 148.7 29.6999H130.788C131.788 32.2999 134.09 33.1999 136.892 33.1999ZM141.595 24.0999C140.795 21.1999 138.493 20.0999 136.191 20.0999C133.289 20.0999 131.388 21.4999 130.688 24.0999H141.595Z" fill="#FFC700"/>
<path d="M87.4579 4V14.1L95.0632 4H87.4579Z" fill="#FFC700"/>
<rect x="1" y="1" width="151" height="42" stroke="#AF4FFF" stroke-width="2"/>
</svg>
